HIERARCHY
ROOT Hips
{
	OFFSET 0.000000 97.167313 0.000000
	CHANNELS 6 Xposition Yposition Zposition Xrotation Yrotation Zrotation
	JOINT Spine
	{
		OFFSET 0.000000 13.784798 0.064400
		CHANNELS 3 Xrotation Yrotation Zrotation
		JOINT Spine1
		{
			OFFSET 0.000000 12.037903 0.404700
			CHANNELS 3 Xrotation Yrotation Zrotation
			JOINT Spine2
			{
				OFFSET 0.000000 17.795601 0.420200
				CHANNELS 3 Xrotation Yrotation Zrotation
				JOINT Neck
				{
					OFFSET 0.000000 39.131302 11.954600
					CHANNELS 3 Xrotation Yrotation Zrotation
					JOINT Head
					{
						OFFSET 0.000000 14.456192 15.627699
						CHANNELS 3 Xrotation Yrotation Zrotation
						JOINT HeadTop_End
						{
							OFFSET 0.000000 15.703506 7.603401
							CHANNELS 3 Xrotation Yrotation Zrotation
							End Site
							{
								OFFSET 0.000000 17.447403 0.000000
							}
						}
					}
				}
				JOINT LeftShoulder
				{
					OFFSET 17.399500 24.608795 1.168800
					CHANNELS 3 Xrotation Yrotation Zrotation
					JOINT LeftArm
					{
						OFFSET 18.980635 5.765305 1.818600
						CHANNELS 3 Xrotation Yrotation Zrotation
						JOINT LeftForeArm
						{
							OFFSET 49.290169 0.000000 0.000000
							CHANNELS 3 Xrotation Yrotation Zrotation
							JOINT LeftHand
							{
								OFFSET 31.562012 0.000000 0.000000
								CHANNELS 3 Xrotation Yrotation Zrotation
								JOINT LeftHandThumb1
								{
									OFFSET 6.133995 -4.388519 7.076070
									CHANNELS 3 Xrotation Yrotation Zrotation
									JOINT LeftHandThumb2
									{
										OFFSET 6.037666 -3.485840 3.485847
										CHANNELS 3 Xrotation Yrotation Zrotation
										JOINT LeftHandThumb3
										{
											OFFSET 6.496506 -3.750763 3.750761
											CHANNELS 3 Xrotation Yrotation Zrotation
											JOINT LeftHandThumb4
											{
												OFFSET 5.616882 -3.242905 3.242910
												CHANNELS 3 Xrotation Yrotation Zrotation
												End Site
												{
													OFFSET -1.254608 7.132141 0.375429
												}
											}
										}
									}
								}
								JOINT LeftHandPinky1
								{
									OFFSET 18.920792 -0.453171 -11.426712
									CHANNELS 3 Xrotation Yrotation Zrotation
									JOINT LeftHandPinky2
									{
										OFFSET 4.919586 0.000000 0.000000
										CHANNELS 3 Xrotation Yrotation Zrotation
										JOINT LeftHandPinky3
										{
											OFFSET 5.233047 0.000000 0.000000
											CHANNELS 3 Xrotation Yrotation Zrotation
											JOINT LeftHandPinky4
											{
												OFFSET 5.571716 0.000000 0.000000
												CHANNELS 3 Xrotation Yrotation Zrotation
												End Site
												{
													OFFSET -3.459808 4.342407 -0.466164
												}
											}
										}
									}
								}
								JOINT LeftHandRing1
								{
									OFFSET 22.726120 -0.094986 -6.500475
									CHANNELS 3 Xrotation Yrotation Zrotation
									JOINT LeftHandRing2
									{
										OFFSET 6.408615 0.000000 0.000000
										CHANNELS 3 Xrotation Yrotation Zrotation
										JOINT LeftHandRing3
										{
											OFFSET 6.150223 0.000000 0.000000
											CHANNELS 3 Xrotation Yrotation Zrotation
											JOINT LeftHandRing4
											{
												OFFSET 6.145386 0.000000 0.000000
												CHANNELS 3 Xrotation Yrotation Zrotation
												End Site
												{
													OFFSET -3.671402 4.923981 -0.202372
												}
											}
										}
									}
								}
								JOINT LeftHandMiddle1
								{
									OFFSET 23.373947 0.000000 0.000001
									CHANNELS 3 Xrotation Yrotation Zrotation
									JOINT LeftHandMiddle2
									{
										OFFSET 6.996567 0.000000 0.000000
										CHANNELS 3 Xrotation Yrotation Zrotation
										JOINT LeftHandMiddle3
										{
											OFFSET 7.015945 0.000000 0.000000
											CHANNELS 3 Xrotation Yrotation Zrotation
											JOINT LeftHandMiddle4
											{
												OFFSET 7.721573 0.000000 0.000000
												CHANNELS 3 Xrotation Yrotation Zrotation
												End Site
												{
													OFFSET -4.651108 6.158463 0.251582
												}
											}
										}
									}
								}
								JOINT LeftHandIndex1
								{
									OFFSET 21.310577 -0.490082 6.209344
									CHANNELS 3 Xrotation Yrotation Zrotation
									JOINT LeftHandIndex2
									{
										OFFSET 7.536453 0.000000 0.000000
										CHANNELS 3 Xrotation Yrotation Zrotation
										JOINT LeftHandIndex3
										{
											OFFSET 7.512344 0.000000 0.000000
											CHANNELS 3 Xrotation Yrotation Zrotation
											JOINT LeftHandIndex4
											{
												OFFSET 10.212402 0.000000 0.000001
												CHANNELS 3 Xrotation Yrotation Zrotation
												End Site
												{
													OFFSET -5.180801 8.690506 1.388433
												}
											}
										}
									}
								}
							}
						}
					}
				}
				JOINT RightShoulder
				{
					OFFSET -17.399500 24.608795 1.168800
					CHANNELS 3 Xrotation Yrotation Zrotation
					JOINT RightArm
					{
						OFFSET -18.980635 5.765305 1.818600
						CHANNELS 3 Xrotation Yrotation Zrotation
						JOINT RightForeArm
						{
							OFFSET -49.290169 0.000000 0.000000
							CHANNELS 3 Xrotation Yrotation Zrotation
							JOINT RightHand
							{
								OFFSET -31.562012 0.000000 0.000000
								CHANNELS 3 Xrotation Yrotation Zrotation
								JOINT RightHandThumb1
								{
									OFFSET -6.133995 -4.388519 7.076070
									CHANNELS 3 Xrotation Yrotation Zrotation
									JOINT RightHandThumb2
									{
										OFFSET -6.037666 -3.485840 3.485847
										CHANNELS 3 Xrotation Yrotation Zrotation
										JOINT RightHandThumb3
										{
											OFFSET -6.496506 -3.750763 3.750761
											CHANNELS 3 Xrotation Yrotation Zrotation
											JOINT RightHandThumb4
											{
												OFFSET -5.616882 -3.242905 3.242910
												CHANNELS 3 Xrotation Yrotation Zrotation
												End Site
												{
													OFFSET 1.254608 7.132141 0.375429
												}
											}
										}
									}
								}
								JOINT RightHandIndex1
								{
									OFFSET -21.310577 -0.490082 6.209344
									CHANNELS 3 Xrotation Yrotation Zrotation
									JOINT RightHandIndex2
									{
										OFFSET -7.536453 0.000000 0.000000
										CHANNELS 3 Xrotation Yrotation Zrotation
										JOINT RightHandIndex3
										{
											OFFSET -7.512344 0.000000 0.000000
											CHANNELS 3 Xrotation Yrotation Zrotation
											JOINT RightHandIndex4
											{
												OFFSET -10.212402 0.000000 0.000001
												CHANNELS 3 Xrotation Yrotation Zrotation
												End Site
												{
													OFFSET 5.180801 8.690506 1.388433
												}
											}
										}
									}
								}
								JOINT RightHandMiddle1
								{
									OFFSET -23.373947 0.000000 0.000001
									CHANNELS 3 Xrotation Yrotation Zrotation
									JOINT RightHandMiddle2
									{
										OFFSET -6.996567 0.000000 0.000000
										CHANNELS 3 Xrotation Yrotation Zrotation
										JOINT RightHandMiddle3
										{
											OFFSET -7.015945 0.000000 0.000000
											CHANNELS 3 Xrotation Yrotation Zrotation
											JOINT RightHandMiddle4
											{
												OFFSET -7.721573 0.000000 0.000000
												CHANNELS 3 Xrotation Yrotation Zrotation
												End Site
												{
													OFFSET 4.651108 6.158463 0.251582
												}
											}
										}
									}
								}
								JOINT RightHandRing1
								{
									OFFSET -22.726120 -0.094986 -6.500475
									CHANNELS 3 Xrotation Yrotation Zrotation
									JOINT RightHandRing2
									{
										OFFSET -6.408615 0.000000 0.000000
										CHANNELS 3 Xrotation Yrotation Zrotation
										JOINT RightHandRing3
										{
											OFFSET -6.150223 0.000000 0.000000
											CHANNELS 3 Xrotation Yrotation Zrotation
											JOINT RightHandRing4
											{
												OFFSET -6.145386 0.000000 0.000000
												CHANNELS 3 Xrotation Yrotation Zrotation
												End Site
												{
													OFFSET 3.671402 4.923981 -0.202372
												}
											}
										}
									}
								}
								JOINT RightHandPinky1
								{
									OFFSET -18.920792 -0.453171 -11.426712
									CHANNELS 3 Xrotation Yrotation Zrotation
									JOINT RightHandPinky2
									{
										OFFSET -4.919586 0.000000 0.000000
										CHANNELS 3 Xrotation Yrotation Zrotation
										JOINT RightHandPinky3
										{
											OFFSET -5.233047 0.000000 0.000000
											CHANNELS 3 Xrotation Yrotation Zrotation
											JOINT RightHandPinky4
											{
												OFFSET -5.571716 0.000000 0.000000
												CHANNELS 3 Xrotation Yrotation Zrotation
												End Site
												{
													OFFSET 3.459808 4.342407 -0.466164
												}
											}
										}
									}
								}
							}
						}
					}
				}
			}
		}
	}
	JOINT LeftUpLeg
	{
		OFFSET 19.899099 -7.885101 -3.429500
		CHANNELS 3 Xrotation Yrotation Zrotation
		JOINT LeftLeg
		{
			OFFSET 1.745560 -36.997807 10.304700
			CHANNELS 3 Xrotation Yrotation Zrotation
			JOINT LeftFoot
			{
				OFFSET -1.745558 -29.803308 -13.615400
				CHANNELS 3 Xrotation Yrotation Zrotation
				JOINT LeftToeBase
				{
					OFFSET 1.181900 -18.539904 15.226099
					CHANNELS 3 Xrotation Yrotation Zrotation
					JOINT LeftToe_End
					{
						OFFSET -0.863701 1.402801 16.534700
						CHANNELS 3 Xrotation Yrotation Zrotation
						End Site
						{
							OFFSET 0.000000 16.616566 0.000000
						}
					}
				}
			}
		}
	}
	JOINT RightUpLeg
	{
		OFFSET -19.899099 -7.885101 -3.429500
		CHANNELS 3 Xrotation Yrotation Zrotation
		JOINT RightLeg
		{
			OFFSET -1.745560 -36.997807 10.304700
			CHANNELS 3 Xrotation Yrotation Zrotation
			JOINT RightFoot
			{
				OFFSET 1.745558 -29.803308 -13.615400
				CHANNELS 3 Xrotation Yrotation Zrotation
				JOINT RightToeBase
				{
					OFFSET -1.181900 -18.539904 15.226099
					CHANNELS 3 Xrotation Yrotation Zrotation
					JOINT RightToe_End
					{
						OFFSET 0.863701 1.402801 16.534700
						CHANNELS 3 Xrotation Yrotation Zrotation
						End Site
						{
							OFFSET 0.000000 16.616566 0.000000
						}
					}
				}
			}
		}
	}
}
MOTION
Frames: 6
Frame Time: 0.033333
-1.463469 78.885101 0.375247 9.549065 -61.629166 10.130285 15.063842 -0.307887 -4.269319 5.872397 0.563950 -2.798217 5.868717 0.648176 -2.860154 -3.632894 1.437162 3.747489 -20.005957 54.836771 2.407366 -0.000000 0.000000 0.000000 1.828095 -3.192678 -12.271576 -39.387416 26.350487 -34.911105 0.429384 -46.808444 0.416193 -10.315057 -0.130723 0.363016 40.109938 -15.297173 -0.360501 5.639848 28.097904 11.338842 1.088512 40.896294 22.734047 0.000001 0.000000 0.000003 -17.946915 14.754976 -51.485857 8.868446 8.667047 -84.811982 4.540443 8.852543 -59.152969 0.000004 -0.000004 -0.000004 -9.042467 10.045659 -60.766178 8.524091 9.508813 -66.893042 6.576579 9.896767 -70.385113 0.000001 0.000003 0.000005 -2.345519 4.688853 -62.655204 8.754140 9.897088 -87.051301 1.995373 4.929272 -37.483419 -0.000003 -0.000004 0.000008 6.882245 2.840036 -61.140411 8.247993 7.640058 -89.897878 2.146104 8.173434 -41.827740 0.000003 0.000001 0.000001 0.632599 7.257355 8.700385 7.936009 -9.680160 53.429913 -22.867437 36.194706 17.955457 -27.369932 10.432885 -17.813545 -2.346184 -6.100559 10.731434 2.364061 -23.806305 -8.771060 -5.012444 13.984831 5.861498 0.000001 -0.000000 -0.000003 -0.054773 0.532079 0.738731 0.019783 -0.087305 5.078504 -0.003977 -2.004384 -2.834021 -0.000001 0.000002 0.000001 0.348248 -5.918525 2.583818 1.432596 -4.204228 24.052095 0.133903 1.746467 -5.752997 0.000001 0.000001 -0.000004 1.205801 -11.756075 4.154771 1.794843 -3.771874 26.865403 1.319775 -3.995356 19.486912 -0.000000 0.000001 -0.000003 2.126195 -19.166861 11.319994 3.354761 -2.122254 18.828537 6.367038 -5.015720 28.949173 -0.000000 -0.000001 0.000004 -37.387048 9.000150 29.820268 35.081276 -10.561802 -0.715538 -3.624148 0.159647 -20.666141 -1.836413 -0.000612 -0.000029 0.000000 0.000004 0.000000 -26.948735 -18.879544 -40.108968 34.580643 9.750912 -0.978634 -14.069292 -3.890231 27.373689 -0.001691 -0.000438 0.000000 0.000000 -0.000000 0.000000 
-2.959181 78.852982 -1.572401 -10.974983 -80.604893 -7.123556 15.645351 -0.100753 -6.046781 4.752899 1.930158 -3.936089 4.753700 1.897970 -4.099801 19.288159 0.090170 -5.132017 -10.401204 44.088574 -0.025943 0.000002 0.000003 -0.000002 0.960043 1.190968 -14.575291 -40.720785 30.717082 -34.846515 13.128115 -44.827843 11.091682 -6.520835 5.566769 -4.375002 40.109938 -15.297177 -0.360502 5.639853 28.097904 11.338839 1.088514 40.896297 22.734044 -0.000001 0.000002 0.000001 -17.946916 14.754979 -51.485860 8.868443 8.667049 -84.811982 4.540448 8.852538 -59.152963 -0.000001 0.000003 -0.000004 -9.042470 10.045659 -60.766185 8.524097 9.508815 -66.893042 6.576577 9.896761 -70.385113 -0.000000 0.000002 0.000003 -2.345520 4.688853 -62.655210 8.754141 9.897094 -87.051301 1.995380 4.929273 -37.483419 -0.000002 -0.000001 0.000004 6.882248 2.840036 -61.140411 8.247996 7.640057 -89.897871 2.146102 8.173436 -41.827740 -0.000001 0.000001 0.000002 -4.757869 20.351373 17.517670 20.338596 -6.571179 43.490014 -43.446878 47.259110 32.390359 -3.149356 5.349597 -24.232133 -5.728696 -6.924018 10.411863 2.339519 -23.066756 -8.453768 -0.966862 6.224146 3.091733 -0.000000 -0.000001 -0.000001 -5.060360 0.002061 8.444104 0.027301 -0.085201 10.075951 0.187438 -1.931261 2.775017 -0.000001 -0.000001 -0.000001 -2.936373 -4.425412 7.345982 1.572509 -4.004067 26.848507 0.022860 1.691134 -2.026320 -0.000000 0.000002 -0.000006 -0.887768 -8.958611 7.635538 0.691399 -1.876320 28.223009 1.219327 -3.878803 21.201247 -0.000002 -0.000002 -0.000000 -7.076251 -15.984267 10.297339 3.278539 -2.001655 21.080197 6.098695 -4.931475 29.546504 -0.000000 -0.000002 0.000005 -13.214321 15.211152 32.360091 32.116379 -0.431800 -1.042721 -10.273383 6.754149 -29.877597 -1.836435 -0.000702 -0.000016 0.000000 0.000003 0.000000 -27.963080 -2.584481 -34.839630 39.633966 9.022007 -2.241193 -11.551862 1.166838 25.726225 -0.001688 -0.000535 -0.000011 0.000000 0.000000 0.000000 
-5.340798 79.917847 -4.193210 31.649457 -103.976455 36.604244 12.760437 -1.248863 -6.550528 2.187144 0.451112 -4.507113 2.147010 0.468633 -4.575215 32.974965 -3.432229 -11.650587 3.706557 30.464693 -3.803638 -0.000002 0.000001 -0.000000 1.006653 4.145292 -17.747314 -41.342500 45.654306 -22.211131 19.412774 -46.293137 18.247274 -4.272858 12.040172 -5.373210 40.109938 -15.297177 -0.360498 5.639851 28.097902 11.338842 1.088515 40.896294 22.734046 0.000003 0.000001 0.000001 -17.946918 14.754976 -51.485857 8.868450 8.667045 -84.811982 4.540445 8.852542 -59.152963 0.000005 0.000004 0.000002 -9.042469 10.045660 -60.766185 8.524092 9.508813 -66.893042 6.576575 9.896764 -70.385106 0.000000 -0.000000 0.000002 -2.345523 4.688856 -62.655210 8.754138 9.897090 -87.051307 1.995377 4.929273 -37.483419 0.000003 -0.000001 0.000004 6.882246 2.840037 -61.140411 8.247995 7.640057 -89.897871 2.146100 8.173435 -41.827744 -0.000001 0.000002 -0.000003 -5.980385 22.234282 19.006007 26.236124 19.499818 29.479930 -53.809788 56.909058 40.303765 18.799003 6.245380 6.335405 -9.392652 -7.719744 10.107770 2.309179 -22.274306 -8.118375 2.972233 -2.233813 0.783598 0.000003 -0.000002 0.000002 -10.153369 -2.015092 16.519752 0.033528 -0.082084 15.413971 0.378295 -1.834033 8.782640 -0.000005 -0.000004 -0.000004 -6.689032 -3.521015 12.616667 1.704216 -3.786570 29.835390 -0.088033 1.629367 1.983008 0.000001 0.000003 -0.000008 -3.491702 -6.340097 11.584207 -0.586625 0.086738 29.721022 1.106043 -3.765298 23.034729 -0.000004 0.000000 -0.000005 -16.789945 -12.883871 10.534092 3.192624 -1.883176 23.487429 5.810909 -4.848559 30.186270 -0.000001 -0.000000 0.000002 18.899412 25.879645 24.018393 16.419099 13.298371 -0.225988 -7.138356 11.400873 -39.217795 -1.833669 -0.000708 -0.000031 0.000000 0.000003 0.000000 -30.402507 6.776014 -23.613977 42.521869 10.063855 -5.996597 -5.099501 -1.278634 21.034054 -0.001686 -0.000540 -0.000002 0.000000 0.000000 -0.000000 
-8.693556 81.349625 -6.448690 21.397482 -122.774180 25.137897 9.068171 -3.327378 -6.026684 -1.129965 -3.062177 -3.733144 -1.158839 -2.945992 -3.677148 35.189978 -7.529606 -9.459043 6.808749 16.553197 -1.644179 -0.000000 0.000000 0.000000 1.026120 5.691124 -21.079028 -47.794720 63.960965 -2.854816 15.905209 -44.890773 18.836762 -1.804832 17.158625 -2.512000 40.109934 -15.297175 -0.360504 5.639852 28.097904 11.338840 1.088523 40.896290 22.734056 0.000001 0.000005 0.000001 -17.946920 14.754979 -51.485860 8.868445 8.667044 -84.811982 4.540446 8.852549 -59.152963 -0.000001 -0.000000 -0.000001 -9.042467 10.045659 -60.766185 8.524094 9.508812 -66.893042 6.576579 9.896762 -70.385113 -0.000001 0.000000 -0.000000 -2.345522 4.688854 -62.655210 8.754142 9.897090 -87.051301 1.995378 4.929275 -37.483419 -0.000001 0.000000 0.000009 6.882246 2.840038 -61.140418 8.247994 7.640058 -89.897878 2.146104 8.173434 -41.827744 -0.000001 0.000001 0.000001 -3.416778 15.851086 18.574990 8.637277 35.563760 26.000710 -60.285838 61.729126 45.710901 17.544704 13.128426 35.882385 -11.811714 -8.195035 9.933396 2.287316 -21.756232 -7.901560 5.415787 -7.827347 -0.401872 0.000001 0.000001 -0.000002 -13.202201 -4.094964 21.630926 0.034941 -0.079495 18.902863 0.493223 -1.760287 12.711272 -0.000001 -0.000003 -0.000001 -9.230579 -3.338252 16.131778 1.780508 -3.642965 31.786894 -0.156656 1.587802 4.641940 -0.000002 0.000002 -0.000004 -5.383648 -4.862886 14.290739 -1.476988 1.332315 30.728225 1.028816 -3.697038 24.233895 -0.000001 0.000000 -0.000005 -23.116975 -11.180630 11.346569 3.134274 -1.811471 25.060413 5.622389 -4.798364 30.606238 -0.000000 -0.000001 0.000000 32.808018 27.879885 18.218599 15.489677 10.317395 -0.341905 4.977967 8.483200 -32.588000 -19.364358 4.137566 -12.698891 0.000000 0.000001 0.000000 -29.824516 12.056272 -13.184137 41.822341 10.672714 -8.196680 -0.717933 -1.566590 17.287697 -0.005319 -0.000504 0.003637 0.000000 0.000000 0.000000 
-11.831211 80.958679 -7.190974 19.331570 -135.521253 20.056307 8.476216 -5.362641 -5.080657 -3.830699 -6.191413 -1.313528 -3.763703 -6.051694 -1.200070 30.906606 -11.258648 2.887175 6.904009 4.617261 3.750357 0.000001 0.000000 -0.000000 0.683304 4.648970 -21.922088 -84.183646 75.345101 31.773999 14.728398 -37.185872 23.896692 5.514512 21.052053 -1.605664 40.109931 -15.297179 -0.360503 5.639855 28.097904 11.338841 1.088519 40.896287 22.734044 -0.000002 0.000001 0.000002 -17.946915 14.754981 -51.485860 8.868447 8.667043 -84.811982 4.540449 8.852545 -59.152969 0.000000 0.000002 0.000001 -9.042465 10.045661 -60.766185 8.524093 9.508809 -66.893042 6.576580 9.896767 -70.385113 -0.000001 0.000000 0.000003 -2.345520 4.688854 -62.655210 8.754142 9.897088 -87.051301 1.995377 4.929275 -37.483422 0.000001 -0.000000 0.000008 6.882245 2.840039 -61.140404 8.247995 7.640057 -89.897878 2.146099 8.173436 -41.827740 -0.000001 0.000003 0.000002 1.930439 3.480252 12.151082 -51.759532 31.279913 53.542218 -54.345817 51.902502 38.048621 -2.489529 11.675398 30.460332 -12.162113 -8.234363 9.876030 2.280155 -21.598935 -7.836291 5.785113 -8.699209 -0.570460 0.000001 0.000001 0.000002 -13.543075 -4.697656 22.579521 0.034290 -0.078540 19.578980 0.513209 -1.738318 13.476298 -0.000000 -0.000003 0.000003 -9.680925 -3.455852 16.756612 1.783415 -3.608593 32.080832 -0.168708 1.574831 5.211073 -0.000004 0.000001 -0.000004 -5.825221 -4.645210 14.600445 -1.613293 1.529109 30.690536 1.000034 -3.677166 24.250296 0.000004 -0.000002 -0.000005 -24.494990 -10.761989 11.228583 3.166269 -1.841460 25.191855 5.571105 -4.775155 30.655737 0.000001 -0.000002 0.000002 26.312332 23.628718 18.752520 19.218957 -8.778037 -2.606614 38.198779 -3.862813 -21.071885 -61.492398 18.613532 -11.868706 0.000000 0.000001 -0.000000 -29.923031 17.035733 -6.159365 40.923758 13.687101 -7.684143 0.905289 -0.091666 16.416375 -0.001744 -0.000491 0.000034 0.000000 -0.000002 -0.000000 
-14.029573 82.335701 -9.721623 16.980096 -142.912091 15.276184 10.908544 -5.529307 -3.687300 -5.445630 -7.153826 1.506707 -5.291753 -7.017017 1.673382 18.476734 -19.553344 19.487693 9.047758 -6.473100 6.264488 0.000000 0.000000 0.000002 -0.070655 -0.238128 -18.143477 -121.024655 73.318939 54.012996 19.410698 -25.690100 32.788654 16.219548 25.588872 -1.086500 40.109934 -15.297173 -0.360502 5.639847 28.097906 11.338835 1.088517 40.896290 22.734044 -0.000000 0.000006 -0.000001 -17.946913 14.754981 -51.485857 8.868442 8.667046 -84.811982 4.540449 8.852542 -59.152969 -0.000002 0.000001 -0.000004 -9.042469 10.045665 -60.766185 8.524092 9.508811 -66.893035 6.576579 9.896765 -70.385113 -0.000002 0.000001 0.000005 -2.345520 4.688856 -62.655210 8.754144 9.897092 -87.051301 1.995380 4.929275 -37.483422 0.000001 -0.000001 0.000008 6.882244 2.840040 -61.140411 8.247996 7.640059 -89.897871 2.146104 8.173436 -41.827737 -0.000001 0.000001 0.000001 5.156075 -2.116815 -12.337012 -71.109994 24.269851 47.214752 -0.402538 26.471669 2.106410 1.004661 5.080487 -7.241707 -9.122115 -7.270416 9.592456 2.255172 -21.063863 -7.615176 3.045614 -2.550229 0.614759 0.000001 -0.000001 -0.000001 -8.924567 -5.586422 19.677625 0.032353 -0.079051 17.682578 0.441759 -1.711173 11.428600 -0.000000 -0.000001 -0.000001 -7.704492 -5.195634 14.032986 1.589092 -3.588671 29.810142 -0.117109 1.539820 3.610870 -0.000000 0.000000 -0.000001 -5.745752 -6.053653 9.840503 -0.624161 0.202307 26.752301 0.853989 -3.610482 20.490274 -0.000000 0.000002 0.000000 -23.307662 -9.899386 5.845549 3.788412 -2.549511 21.846205 5.467382 -4.606237 29.971078 -0.000002 0.000002 0.000004 18.258513 17.801636 16.537543 29.002581 -14.603172 -2.377997 41.907264 -4.323486 -14.672817 -66.478641 9.999719 -6.625774 -0.000000 0.000000 -0.000000 -29.115836 19.889016 -0.402308 37.450924 14.130617 -6.891229 1.977548 1.377681 14.882195 -0.001683 -0.000447 -0.000012 0.000000 0.000001 0.000000 
